<?xml version="1.0" encoding="utf-8"?>
<!-- Generator: Adobe Illustrator 16.0.0, SVG Export Plug-In . SVG Version: 6.00 Build 0)  -->
<!DOCTYPE svg PUBLIC "-//W3C//DTD SVG 1.1//EN" "http://www.w3.org/Graphics/SVG/1.1/DTD/svg11.dtd">
<svg version="1.1" xmlns="http://www.w3.org/2000/svg" xmlns:xlink="http://www.w3.org/1999/xlink" x="0px" y="0px"
	 width="708.662px" height="992.125px" viewBox="0 0 708.662 992.125" enable-background="new 0 0 708.662 992.125"
	 xml:space="preserve">
  <defs>
    <style type="text/css"><![CDATA[
      --primary: black;
      --primaryShadow: white;
      --secondary: #808080;
    ]]></style>
  </defs>
<g id="Layer_1">
	<path fill="#ffffff" d="M679.654,0H29.008C12.987,0,0,12.987,0,29.008v934.11c0,16.021,12.987,29.008,29.008,29.008h650.646
		c16.02,0,29.008-12.986,29.008-29.008V29.008C708.662,12.987,695.673,0,679.654,0z"/>
	<path fill="#808080" d="M656.866,25.2H51.798c-14.898,0-26.977,12.328-26.977,27.535v886.657c0,15.209,12.078,27.535,26.977,27.535
		h605.067c14.897,0,26.976-12.326,26.976-27.535V52.734C683.841,37.527,671.763,25.2,656.866,25.2z"/>
</g>
<g id="Lines">
	
		<polyline fill="none" stroke="#ffffff" stroke-width="26" stroke-linecap="round" stroke-linejoin="round" stroke-miterlimit="10" points="
		354.331,496.075 520.882,496.075 623.882,496.051 	"/>
	
		<line fill="none" stroke="#ffffff" stroke-width="26" stroke-linecap="round" stroke-linejoin="round" stroke-miterlimit="10" x1="645.549" y1="464.982" x2="696.882" y2="440.982"/>
	
		<polyline fill="none" stroke="#ffffff" stroke-width="26" stroke-linecap="round" stroke-linejoin="round" stroke-miterlimit="10" points="
		610.882,376.316 629.549,403.649 703.549,368.982 	"/>
	
		<polyline fill="none" stroke="#ffffff" stroke-width="26" stroke-linecap="round" stroke-linejoin="round" stroke-miterlimit="10" points="
		354.331,496.074 520.881,496.074 623.881,496.098 	"/>
	
		<line fill="none" stroke="#ffffff" stroke-width="26" stroke-linecap="round" stroke-linejoin="round" stroke-miterlimit="10" x1="645.548" y1="527.167" x2="696.881" y2="551.167"/>
	
		<polyline fill="none" stroke="#ffffff" stroke-width="26" stroke-linecap="round" stroke-linejoin="round" stroke-miterlimit="10" points="
		610.881,615.833 629.548,588.5 703.548,623.167 	"/>
	
		<polyline fill="none" stroke="#ffffff" stroke-width="26" stroke-linecap="round" stroke-linejoin="round" stroke-miterlimit="10" points="
		354.33,496.098 187.779,496.098 84.779,496.075 	"/>
	
		<line fill="none" stroke="#ffffff" stroke-width="26" stroke-linecap="round" stroke-linejoin="round" stroke-miterlimit="10" x1="63.112" y1="465.005" x2="11.779" y2="441.005"/>
	
		<polyline fill="none" stroke="#ffffff" stroke-width="26" stroke-linecap="round" stroke-linejoin="round" stroke-miterlimit="10" points="
		97.779,376.339 79.112,403.672 5.112,369.006 	"/>
	
		<polyline fill="none" stroke="#ffffff" stroke-width="26" stroke-linecap="round" stroke-linejoin="round" stroke-miterlimit="10" points="
		354.331,496.097 187.78,496.097 84.78,496.121 	"/>
	
		<line fill="none" stroke="#ffffff" stroke-width="26" stroke-linecap="round" stroke-linejoin="round" stroke-miterlimit="10" x1="63.113" y1="527.19" x2="11.78" y2="551.19"/>
	
		<polyline fill="none" stroke="#ffffff" stroke-width="26" stroke-linecap="round" stroke-linejoin="round" stroke-miterlimit="10" points="
		97.78,615.856 79.113,588.524 5.113,623.19 	"/>
	<path fill="none" stroke="#ffffff" stroke-width="26" stroke-linecap="round" stroke-linejoin="round" stroke-miterlimit="10" d="
		M191.549,258.316c0,0,148.742-117.261,323.333,0"/>
	
		<line fill="none" stroke="#ffffff" stroke-width="26" stroke-linecap="round" stroke-linejoin="round" stroke-miterlimit="10" x1="555.882" y1="208.649" x2="473.882" y2="315.316"/>
	
		<polyline fill="none" stroke="#ffffff" stroke-width="26" stroke-linecap="round" stroke-linejoin="round" stroke-miterlimit="10" points="
		452.549,214.982 498.549,111.649 702.549,111.649 	"/>
	
		<polyline fill="none" stroke="#ffffff" stroke-width="26" stroke-linecap="round" stroke-linejoin="round" stroke-miterlimit="10" points="
		497.882,72.982 497.882,108.982 497.882,70.982 695.882,70.982 	"/>
	
		<line fill="none" stroke="#ffffff" stroke-width="26" stroke-linecap="round" stroke-linejoin="round" stroke-miterlimit="10" x1="540.549" y1="13.982" x2="540.549" y2="66.649"/>
	
		<line fill="none" stroke="#ffffff" stroke-width="26" stroke-linecap="round" stroke-linejoin="round" stroke-miterlimit="10" x1="371.882" y1="146.149" x2="395.882" y2="146.149"/>
	
		<line fill="none" stroke="#ffffff" stroke-width="26" stroke-linecap="round" stroke-linejoin="round" stroke-miterlimit="10" x1="371.882" y1="104.149" x2="428.382" y2="104.149"/>
	
		<line fill="none" stroke="#ffffff" stroke-width="26" stroke-linecap="round" stroke-linejoin="round" stroke-miterlimit="10" x1="371.882" y1="62.649" x2="400.132" y2="62.649"/>
	
		<line fill="none" stroke="#ffffff" stroke-width="26" stroke-linecap="round" stroke-linejoin="round" stroke-miterlimit="10" x1="354.332" y1="34.149" x2="354.332" y2="13.982"/>
	
		<line fill="none" stroke="#ffffff" stroke-width="26" stroke-linecap="round" stroke-linejoin="round" stroke-miterlimit="10" x1="558.882" y1="160.649" x2="480.382" y2="160.649"/>
	
		<line fill="none" stroke="#ffffff" stroke-width="26" stroke-linecap="round" stroke-linejoin="round" stroke-miterlimit="10" x1="627.882" y1="195.649" x2="695.882" y2="153.649"/>
	
		<line fill="none" stroke="#ffffff" stroke-width="26" stroke-linecap="round" stroke-linejoin="round" stroke-miterlimit="10" x1="627.882" y1="198.149" x2="699.382" y2="326.149"/>
	
		<polyline fill="none" stroke="#ffffff" stroke-width="26" stroke-linecap="round" stroke-linejoin="round" stroke-miterlimit="10" points="
		642.382,232.258 596.882,258.316 634.882,332.649 	"/>
	
		<line fill="none" stroke="#ffffff" stroke-width="26" stroke-linecap="round" stroke-linejoin="round" stroke-miterlimit="10" x1="610.882" y1="291.649" x2="574.882" y2="313.149"/>
	
		<line fill="none" stroke="#ffffff" stroke-width="26" stroke-linecap="round" stroke-linejoin="round" stroke-miterlimit="10" x1="152.78" y1="208.649" x2="234.78" y2="315.316"/>
	
		<polyline fill="none" stroke="#ffffff" stroke-width="26" stroke-linecap="round" stroke-linejoin="round" stroke-miterlimit="10" points="
		256.113,214.982 210.113,111.649 6.113,111.649 	"/>
	
		<polyline fill="none" stroke="#ffffff" stroke-width="26" stroke-linecap="round" stroke-linejoin="round" stroke-miterlimit="10" points="
		210.78,72.982 210.78,108.982 210.78,70.982 12.78,70.982 	"/>
	
		<line fill="none" stroke="#ffffff" stroke-width="26" stroke-linecap="round" stroke-linejoin="round" stroke-miterlimit="10" x1="168.113" y1="13.982" x2="168.113" y2="66.649"/>
	
		<line fill="none" stroke="#ffffff" stroke-width="26" stroke-linecap="round" stroke-linejoin="round" stroke-miterlimit="10" x1="336.78" y1="146.149" x2="312.78" y2="146.149"/>
	
		<line fill="none" stroke="#ffffff" stroke-width="26" stroke-linecap="round" stroke-linejoin="round" stroke-miterlimit="10" x1="336.78" y1="104.149" x2="280.28" y2="104.149"/>
	
		<line fill="none" stroke="#ffffff" stroke-width="26" stroke-linecap="round" stroke-linejoin="round" stroke-miterlimit="10" x1="336.78" y1="62.649" x2="308.53" y2="62.649"/>
	
		<line fill="none" stroke="#ffffff" stroke-width="26" stroke-linecap="round" stroke-linejoin="round" stroke-miterlimit="10" x1="354.331" y1="34.149" x2="354.331" y2="13.982"/>
	
		<line fill="none" stroke="#ffffff" stroke-width="26" stroke-linecap="round" stroke-linejoin="round" stroke-miterlimit="10" x1="149.78" y1="160.649" x2="228.28" y2="160.649"/>
	
		<line fill="none" stroke="#ffffff" stroke-width="26" stroke-linecap="round" stroke-linejoin="round" stroke-miterlimit="10" x1="80.78" y1="195.649" x2="12.78" y2="153.649"/>
	
		<line fill="none" stroke="#ffffff" stroke-width="26" stroke-linecap="round" stroke-linejoin="round" stroke-miterlimit="10" x1="80.78" y1="198.149" x2="9.28" y2="326.149"/>
	
		<polyline fill="none" stroke="#ffffff" stroke-width="26" stroke-linecap="round" stroke-linejoin="round" stroke-miterlimit="10" points="
		66.28,232.258 111.78,258.316 73.78,332.649 	"/>
	
		<line fill="none" stroke="#ffffff" stroke-width="26" stroke-linecap="round" stroke-linejoin="round" stroke-miterlimit="10" x1="97.78" y1="291.649" x2="133.78" y2="313.149"/>
	
		<line fill="none" stroke="#ffffff" stroke-width="26" stroke-linecap="round" stroke-linejoin="round" stroke-miterlimit="10" x1="152.781" y1="783.606" x2="234.781" y2="676.938"/>
	
		<polyline fill="none" stroke="#ffffff" stroke-width="26" stroke-linecap="round" stroke-linejoin="round" stroke-miterlimit="10" points="
		256.113,777.272 210.113,880.606 6.113,880.606 	"/>
	
		<polyline fill="none" stroke="#ffffff" stroke-width="26" stroke-linecap="round" stroke-linejoin="round" stroke-miterlimit="10" points="
		210.781,919.272 210.781,883.272 210.781,921.272 12.781,921.272 	"/>
	
		<line fill="none" stroke="#ffffff" stroke-width="26" stroke-linecap="round" stroke-linejoin="round" stroke-miterlimit="10" x1="168.113" y1="978.272" x2="168.113" y2="925.606"/>
	
		<line fill="none" stroke="#ffffff" stroke-width="26" stroke-linecap="round" stroke-linejoin="round" stroke-miterlimit="10" x1="336.781" y1="846.106" x2="312.781" y2="846.106"/>
	
		<line fill="none" stroke="#ffffff" stroke-width="26" stroke-linecap="round" stroke-linejoin="round" stroke-miterlimit="10" x1="336.781" y1="888.106" x2="280.281" y2="888.106"/>
	
		<line fill="none" stroke="#ffffff" stroke-width="26" stroke-linecap="round" stroke-linejoin="round" stroke-miterlimit="10" x1="336.781" y1="929.606" x2="308.531" y2="929.606"/>
	
		<line fill="none" stroke="#ffffff" stroke-width="26" stroke-linecap="round" stroke-linejoin="round" stroke-miterlimit="10" x1="354.331" y1="958.106" x2="354.331" y2="978.272"/>
	
		<line fill="none" stroke="#ffffff" stroke-width="26" stroke-linecap="round" stroke-linejoin="round" stroke-miterlimit="10" x1="149.781" y1="831.606" x2="228.281" y2="831.606"/>
	
		<line fill="none" stroke="#ffffff" stroke-width="26" stroke-linecap="round" stroke-linejoin="round" stroke-miterlimit="10" x1="80.781" y1="796.606" x2="12.781" y2="838.606"/>
	
		<line fill="none" stroke="#ffffff" stroke-width="26" stroke-linecap="round" stroke-linejoin="round" stroke-miterlimit="10" x1="80.781" y1="794.106" x2="9.281" y2="666.106"/>
	
		<polyline fill="none" stroke="#ffffff" stroke-width="26" stroke-linecap="round" stroke-linejoin="round" stroke-miterlimit="10" points="
		66.281,759.997 111.781,733.938 73.781,659.606 	"/>
	
		<line fill="none" stroke="#ffffff" stroke-width="26" stroke-linecap="round" stroke-linejoin="round" stroke-miterlimit="10" x1="97.781" y1="700.606" x2="133.781" y2="679.106"/>
	
		<line fill="none" stroke="#ffffff" stroke-width="26" stroke-linecap="round" stroke-linejoin="round" stroke-miterlimit="10" x1="555.882" y1="783.606" x2="473.882" y2="676.938"/>
	
		<polyline fill="none" stroke="#ffffff" stroke-width="26" stroke-linecap="round" stroke-linejoin="round" stroke-miterlimit="10" points="
		452.55,777.272 498.55,880.606 702.55,880.606 	"/>
	
		<polyline fill="none" stroke="#ffffff" stroke-width="26" stroke-linecap="round" stroke-linejoin="round" stroke-miterlimit="10" points="
		497.882,919.272 497.882,883.272 497.882,921.272 695.882,921.272 	"/>
	
		<line fill="none" stroke="#ffffff" stroke-width="26" stroke-linecap="round" stroke-linejoin="round" stroke-miterlimit="10" x1="540.55" y1="978.272" x2="540.55" y2="925.606"/>
	
		<line fill="none" stroke="#ffffff" stroke-width="26" stroke-linecap="round" stroke-linejoin="round" stroke-miterlimit="10" x1="371.882" y1="846.106" x2="395.882" y2="846.106"/>
	
		<line fill="none" stroke="#ffffff" stroke-width="26" stroke-linecap="round" stroke-linejoin="round" stroke-miterlimit="10" x1="371.882" y1="888.106" x2="428.382" y2="888.106"/>
	
		<line fill="none" stroke="#ffffff" stroke-width="26" stroke-linecap="round" stroke-linejoin="round" stroke-miterlimit="10" x1="371.882" y1="929.606" x2="400.132" y2="929.606"/>
	
		<line fill="none" stroke="#ffffff" stroke-width="26" stroke-linecap="round" stroke-linejoin="round" stroke-miterlimit="10" x1="354.332" y1="958.106" x2="354.332" y2="978.272"/>
	
		<line fill="none" stroke="#ffffff" stroke-width="26" stroke-linecap="round" stroke-linejoin="round" stroke-miterlimit="10" x1="558.882" y1="831.606" x2="480.382" y2="831.606"/>
	
		<line fill="none" stroke="#ffffff" stroke-width="26" stroke-linecap="round" stroke-linejoin="round" stroke-miterlimit="10" x1="627.882" y1="796.606" x2="695.882" y2="838.606"/>
	
		<line fill="none" stroke="#ffffff" stroke-width="26" stroke-linecap="round" stroke-linejoin="round" stroke-miterlimit="10" x1="627.882" y1="794.106" x2="699.382" y2="666.106"/>
	
		<polyline fill="none" stroke="#ffffff" stroke-width="26" stroke-linecap="round" stroke-linejoin="round" stroke-miterlimit="10" points="
		642.382,759.997 596.882,733.938 634.882,659.606 	"/>
	
		<line fill="none" stroke="#ffffff" stroke-width="26" stroke-linecap="round" stroke-linejoin="round" stroke-miterlimit="10" x1="610.882" y1="700.606" x2="574.882" y2="679.106"/>
	
		<polyline fill="none" stroke="#ffffff" stroke-width="26" stroke-linecap="round" stroke-linejoin="round" stroke-miterlimit="10" points="
		354.332,496.145 520.882,496.145 623.882,496.121 	"/>
	<path fill="none" stroke="#ffffff" stroke-width="26" stroke-linecap="round" stroke-linejoin="round" stroke-miterlimit="10" d="
		M517.112,733.987c0,0-148.742,117.26-323.333,0"/>
	
		<polyline fill="none" stroke="#ffffff" stroke-width="26" stroke-linecap="round" stroke-linejoin="round" stroke-miterlimit="10" points="
		354.331,496.145 187.779,496.145 84.779,496.168 	"/>
</g>
<g id="Dots">
	<circle fill="#ffffff" cx="597.881" cy="439.649" r="13"/>
	<circle fill="#ffffff" cx="597.88" cy="552.5" r="13"/>
	<circle fill="#ffffff" cx="110.78" cy="439.673" r="13"/>
	<circle fill="#ffffff" cx="110.781" cy="552.523" r="13"/>
	<circle fill="#ffffff" cx="602.781" cy="159.523" r="13"/>
	<circle fill="#ffffff" cx="454.781" cy="55.523" r="13"/>
	<circle fill="#ffffff" cx="105.881" cy="159.523" r="13"/>
	<circle fill="#ffffff" cx="253.881" cy="55.523" r="13"/>
	<circle fill="#ffffff" cx="105.882" cy="832.731" r="13"/>
	<circle fill="#ffffff" cx="253.882" cy="936.731" r="13"/>
	<circle fill="#ffffff" cx="602.781" cy="832.731" r="13"/>
	<circle fill="#ffffff" cx="454.781" cy="936.731" r="13"/>
	<circle fill="#ffffff" cx="354.331" cy="496.062" r="224.092"/>
</g>
</svg>
