<svg id="Layer_1" data-name="Layer 1" xmlns="http://www.w3.org/2000/svg" viewBox="0 0 1280 503.95"><title>wave</title><path d="M947,190V649H-333V189c14.64-4.33,29.14-9.25,44-12.86,22.44-5.47,45.05-10.31,67.7-14.87,13.12-2.64,26.42-4.45,39.69-6.2,12.68-1.66,25.43-2.81,38.16-4.09,13.72-1.38,27.44-2.94,41.19-3.89,11.23-.77,22.52-.74,33.78-1.13A8.59,8.59,0,0,0-66,145H13c.51.32,1,.9,1.53.93C33.65,147,52.79,147.86,71.91,149c12.48.77,25,1.61,37.38,3.07,16.56,2,33.07,4.44,49.56,6.91,17.12,2.56,34.29,4.94,51.29,8.17q30.71,5.84,61.14,13c27.06,6.44,53.89,13.83,81,20.28,19.32,4.61,38.76,8.8,58.3,12.33,19.93,3.61,40,6.28,60.08,9.17,14.9,2.15,29.81,4.29,44.77,5.9,15.69,1.69,31.43,3.13,47.19,4,19.51,1.07,39,1.87,58.58,2,24.09.14,48.19-.5,72.28-.92,8.1-.14,16.2-.59,24.29-1,4.94-.24,9.89-.51,14.8-1q22-2.35,44-4.94c13.49-1.6,27-3,40.44-5.16q20.5-3.29,40.78-7.9c21.88-5,43.66-10.47,65.42-15.94C931.18,195,939.06,192.35,947,190Z" transform="translate(333 -145)"/></svg>