<?xml version="1.0" encoding="utf-8"?>
<!-- Generator: Adobe Illustrator 16.0.0, SVG Export Plug-In . SVG Version: 6.00 Build 0)  -->
<!DOCTYPE svg PUBLIC "-//W3C//DTD SVG 1.1//EN" "http://www.w3.org/Graphics/SVG/1.1/DTD/svg11.dtd">
<svg version="1.1" xmlns="http://www.w3.org/2000/svg" xmlns:xlink="http://www.w3.org/1999/xlink" x="0px" y="0px"
	 width="708.662px" height="992.125px" viewBox="0 0 708.662 992.125" enable-background="new 0 0 708.662 992.125"
	 xml:space="preserve">
<g id="Layer_1">
	<path fill="#FFFFFF" d="M679.654,0H29.008C12.987,0,0,12.987,0,29.008v934.11c0,16.021,12.987,29.008,29.008,29.008h650.646
		c16.02,0,29.008-12.986,29.008-29.008V29.008C708.662,12.987,695.673,0,679.654,0z"/>
	<path display="none" fill="none" stroke="#2B3333" stroke-width="12" stroke-miterlimit="10" d="M683.84,939.391
		c0,15.209-12.078,27.535-26.976,27.535H51.797c-14.898,0-26.977-12.326-26.977-27.535V52.734c0-15.207,12.078-27.535,26.977-27.535
		h605.067c14.897,0,26.976,12.328,26.976,27.535V939.391z"/>
	<path fill="#808080" d="M656.866,25.2H51.798c-14.898,0-26.977,12.328-26.977,27.535v886.657c0,15.209,12.078,27.535,26.977,27.535
		h605.067c14.897,0,26.976-12.326,26.976-27.535V52.734C683.841,37.527,671.763,25.2,656.866,25.2z"/>
</g>
<g id="Layer_3" display="none">
	<path display="inline" fill="none" stroke="#2B3333" stroke-width="13" stroke-miterlimit="10" d="M172.494,169.272
		c0,1.779-1.442,3.222-3.222,3.222H43.222c-1.779,0-3.222-1.443-3.222-3.222V43.222C40,41.442,41.442,40,43.222,40h126.05
		c1.779,0,3.222,1.442,3.222,3.222V169.272z"/>
	<path display="inline" fill="none" stroke="#2B3333" stroke-width="13" stroke-miterlimit="10" d="M156.125,60.465
		c0,0,1.074,0-1.969,0s-1.074,0-1.074,0s-18.437,0-13.783,0c0.895,0,4.117,0,10.919,0h-3.938c0,0-71.419,0-83.948,0
		c-12.53,0-0.716,0-4.475,0s0,0,0,0"/>
	<path display="inline" fill="none" stroke="#2B3333" stroke-width="13" stroke-miterlimit="10" d="M156.308,113.439
		C156.308,103.415,156.308,145.301,156.308,113.439c0-31.861,0-50.716,0-42.363s0-11.217,0-5.131c0,6.085,0-9.666,0-3.103"/>
	<path display="inline" fill="none" stroke="#2B3333" stroke-width="13" stroke-miterlimit="10" d="M56.186,100.442
		C56.186,92.924,56.186,124.338,56.186,100.442c0-23.896,0-38.036,0-31.771c0,6.265,0-8.413,0-3.848s0-7.249,0-2.327"/>
	<path display="inline" fill="none" stroke="#2B3333" stroke-width="13" stroke-miterlimit="10" d="M156.125,152.558
		c0,0,1.074,0-1.969,0s-1.074,0-1.074,0s-18.437,0-13.783,0c0.895,0,4.117,0,10.919,0h-3.938c0,0-71.419,0-83.948,0
		c-12.53,0-0.716,0-4.475,0s0,0,0,0"/>
	<path display="inline" fill="none" stroke="#2B3333" stroke-width="13" stroke-miterlimit="10" d="M106.247,61.076
		c0,5.237,0,27.685,0,14.946"/>
	<path display="inline" fill="none" stroke="#2B3333" stroke-width="13" stroke-miterlimit="10" d="M85.826,96.152
		c10.874,0,62.421,0,47.521,0s-68.059,0-54.77,0"/>
	
		<line display="inline" fill="none" stroke="#2B3333" stroke-width="13" stroke-miterlimit="10" x1="106.247" y1="90.783" x2="106.247" y2="156.317"/>
	<path display="inline" fill="none" stroke="#2B3333" stroke-width="13" stroke-miterlimit="10" d="M156.308,125.619
		c0,0-34.626,0-24.066,0"/>
	<path display="inline" fill="none" stroke="#2B3333" stroke-width="13" stroke-miterlimit="10" d="M56.186,125.619
		c0,0,34.626,0,24.066,0"/>
	<path display="inline" fill="none" stroke="#2B3333" stroke-width="13" stroke-miterlimit="10" d="M56.186,113.432
		C56.186,103.403,56.186,145.312,56.186,113.432c0-31.878,0-50.743,0-42.386c0,8.358,0-11.223,0-5.134s0-9.671,0-3.104"/>
</g>
<g id="Layer_4" display="none">
	<path display="inline" fill="none" stroke="#2B3333" stroke-width="13" stroke-miterlimit="10" d="M536.167,822.854
		c0-1.779,1.442-3.223,3.222-3.223h126.05c1.779,0,3.223,1.443,3.223,3.223v126.05c0,1.779-1.443,3.222-3.223,3.222h-126.05
		c-1.779,0-3.222-1.442-3.222-3.222V822.854z"/>
	<path display="inline" fill="none" stroke="#2B3333" stroke-width="13" stroke-miterlimit="10" d="M552.537,931.661
		c0,0-1.074,0,1.969,0s1.074,0,1.074,0s18.438,0,13.783,0c-0.895,0-4.117,0-10.919,0h3.938c0,0,71.418,0,83.947,0
		c12.53,0,0.717,0,4.476,0s0,0,0,0"/>
	<path display="inline" fill="none" stroke="#2B3333" stroke-width="13" stroke-miterlimit="10" d="M552.353,878.686
		C552.353,888.71,552.353,846.825,552.353,878.686s0,50.717,0,42.363s0,11.217,0,5.131s0,9.666,0,3.103"/>
	<path display="inline" fill="none" stroke="#2B3333" stroke-width="13" stroke-miterlimit="10" d="M652.476,891.684
		C652.476,899.202,652.476,867.788,652.476,891.684c0,23.895,0,38.035,0,31.771c0-6.266,0,8.412,0,3.848s0,7.249,0,2.327"/>
	<path display="inline" fill="none" stroke="#2B3333" stroke-width="13" stroke-miterlimit="10" d="M552.537,839.567
		c0,0-1.074,0,1.969,0s1.074,0,1.074,0s18.438,0,13.783,0c-0.895,0-4.117,0-10.919,0h3.938c0,0,71.418,0,83.947,0
		c12.53,0,0.717,0,4.476,0s0,0,0,0"/>
	<path display="inline" fill="none" stroke="#2B3333" stroke-width="13" stroke-miterlimit="10" d="M602.415,931.049
		c0-5.236,0-27.685,0-14.945"/>
	<path display="inline" fill="none" stroke="#2B3333" stroke-width="13" stroke-miterlimit="10" d="M622.835,895.973
		c-10.874,0-62.422,0-47.521,0s68.06,0,54.77,0"/>
	
		<line display="inline" fill="none" stroke="#2B3333" stroke-width="13" stroke-miterlimit="10" x1="602.415" y1="901.342" x2="602.415" y2="835.809"/>
	<path display="inline" fill="none" stroke="#2B3333" stroke-width="13" stroke-miterlimit="10" d="M552.353,866.506
		c0,0,34.627,0,24.066,0"/>
	<path display="inline" fill="none" stroke="#2B3333" stroke-width="13" stroke-miterlimit="10" d="M652.476,866.506
		c0,0-34.627,0-24.066,0"/>
	<path display="inline" fill="none" stroke="#2B3333" stroke-width="13" stroke-miterlimit="10" d="M652.476,878.694
		C652.476,888.723,652.476,846.814,652.476,878.694c0,31.879,0,50.743,0,42.386c0-8.358,0,11.224,0,5.134s0,9.671,0,3.104"/>
</g>
<g id="Lines">
	
		<polyline fill="none" stroke="#FFFFFF" stroke-width="26" stroke-linecap="round" stroke-linejoin="round" stroke-miterlimit="10" points="
		354.331,496.075 520.882,496.075 623.882,496.051 	"/>
	
		<line fill="none" stroke="#FFFFFF" stroke-width="26" stroke-linecap="round" stroke-linejoin="round" stroke-miterlimit="10" x1="645.549" y1="464.982" x2="696.882" y2="440.982"/>
	
		<polyline fill="none" stroke="#FFFFFF" stroke-width="26" stroke-linecap="round" stroke-linejoin="round" stroke-miterlimit="10" points="
		610.882,376.316 629.549,403.649 703.549,368.982 	"/>
	
		<polyline fill="none" stroke="#FFFFFF" stroke-width="26" stroke-linecap="round" stroke-linejoin="round" stroke-miterlimit="10" points="
		354.331,496.074 520.881,496.074 623.881,496.098 	"/>
	
		<line fill="none" stroke="#FFFFFF" stroke-width="26" stroke-linecap="round" stroke-linejoin="round" stroke-miterlimit="10" x1="645.548" y1="527.167" x2="696.881" y2="551.167"/>
	
		<polyline fill="none" stroke="#FFFFFF" stroke-width="26" stroke-linecap="round" stroke-linejoin="round" stroke-miterlimit="10" points="
		610.881,615.833 629.548,588.5 703.548,623.167 	"/>
	
		<polyline fill="none" stroke="#FFFFFF" stroke-width="26" stroke-linecap="round" stroke-linejoin="round" stroke-miterlimit="10" points="
		354.33,496.098 187.779,496.098 84.779,496.075 	"/>
	
		<line fill="none" stroke="#FFFFFF" stroke-width="26" stroke-linecap="round" stroke-linejoin="round" stroke-miterlimit="10" x1="63.112" y1="465.005" x2="11.779" y2="441.005"/>
	
		<polyline fill="none" stroke="#FFFFFF" stroke-width="26" stroke-linecap="round" stroke-linejoin="round" stroke-miterlimit="10" points="
		97.779,376.339 79.112,403.672 5.112,369.006 	"/>
	
		<polyline fill="none" stroke="#FFFFFF" stroke-width="26" stroke-linecap="round" stroke-linejoin="round" stroke-miterlimit="10" points="
		354.331,496.097 187.78,496.097 84.78,496.121 	"/>
	
		<line fill="none" stroke="#FFFFFF" stroke-width="26" stroke-linecap="round" stroke-linejoin="round" stroke-miterlimit="10" x1="63.113" y1="527.19" x2="11.78" y2="551.19"/>
	
		<polyline fill="none" stroke="#FFFFFF" stroke-width="26" stroke-linecap="round" stroke-linejoin="round" stroke-miterlimit="10" points="
		97.78,615.856 79.113,588.524 5.113,623.19 	"/>
	<path fill="none" stroke="#FFFFFF" stroke-width="26" stroke-linecap="round" stroke-linejoin="round" stroke-miterlimit="10" d="
		M191.549,258.316c0,0,148.742-117.261,323.333,0"/>
	
		<line fill="none" stroke="#FFFFFF" stroke-width="26" stroke-linecap="round" stroke-linejoin="round" stroke-miterlimit="10" x1="555.882" y1="208.649" x2="473.882" y2="315.316"/>
	
		<polyline fill="none" stroke="#FFFFFF" stroke-width="26" stroke-linecap="round" stroke-linejoin="round" stroke-miterlimit="10" points="
		452.549,214.982 498.549,111.649 702.549,111.649 	"/>
	
		<polyline fill="none" stroke="#FFFFFF" stroke-width="26" stroke-linecap="round" stroke-linejoin="round" stroke-miterlimit="10" points="
		497.882,72.982 497.882,108.982 497.882,70.982 695.882,70.982 	"/>
	
		<line fill="none" stroke="#FFFFFF" stroke-width="26" stroke-linecap="round" stroke-linejoin="round" stroke-miterlimit="10" x1="540.549" y1="13.982" x2="540.549" y2="66.649"/>
	
		<line fill="none" stroke="#FFFFFF" stroke-width="26" stroke-linecap="round" stroke-linejoin="round" stroke-miterlimit="10" x1="371.882" y1="146.149" x2="395.882" y2="146.149"/>
	
		<line fill="none" stroke="#FFFFFF" stroke-width="26" stroke-linecap="round" stroke-linejoin="round" stroke-miterlimit="10" x1="371.882" y1="104.149" x2="428.382" y2="104.149"/>
	
		<line fill="none" stroke="#FFFFFF" stroke-width="26" stroke-linecap="round" stroke-linejoin="round" stroke-miterlimit="10" x1="371.882" y1="62.649" x2="400.132" y2="62.649"/>
	
		<line fill="none" stroke="#FFFFFF" stroke-width="26" stroke-linecap="round" stroke-linejoin="round" stroke-miterlimit="10" x1="354.332" y1="34.149" x2="354.332" y2="13.982"/>
	
		<line fill="none" stroke="#FFFFFF" stroke-width="26" stroke-linecap="round" stroke-linejoin="round" stroke-miterlimit="10" x1="558.882" y1="160.649" x2="480.382" y2="160.649"/>
	
		<line fill="none" stroke="#FFFFFF" stroke-width="26" stroke-linecap="round" stroke-linejoin="round" stroke-miterlimit="10" x1="627.882" y1="195.649" x2="695.882" y2="153.649"/>
	
		<line fill="none" stroke="#FFFFFF" stroke-width="26" stroke-linecap="round" stroke-linejoin="round" stroke-miterlimit="10" x1="627.882" y1="198.149" x2="699.382" y2="326.149"/>
	
		<polyline fill="none" stroke="#FFFFFF" stroke-width="26" stroke-linecap="round" stroke-linejoin="round" stroke-miterlimit="10" points="
		642.382,232.258 596.882,258.316 634.882,332.649 	"/>
	
		<line fill="none" stroke="#FFFFFF" stroke-width="26" stroke-linecap="round" stroke-linejoin="round" stroke-miterlimit="10" x1="610.882" y1="291.649" x2="574.882" y2="313.149"/>
	
		<line fill="none" stroke="#FFFFFF" stroke-width="26" stroke-linecap="round" stroke-linejoin="round" stroke-miterlimit="10" x1="152.78" y1="208.649" x2="234.78" y2="315.316"/>
	
		<polyline fill="none" stroke="#FFFFFF" stroke-width="26" stroke-linecap="round" stroke-linejoin="round" stroke-miterlimit="10" points="
		256.113,214.982 210.113,111.649 6.113,111.649 	"/>
	
		<polyline fill="none" stroke="#FFFFFF" stroke-width="26" stroke-linecap="round" stroke-linejoin="round" stroke-miterlimit="10" points="
		210.78,72.982 210.78,108.982 210.78,70.982 12.78,70.982 	"/>
	
		<line fill="none" stroke="#FFFFFF" stroke-width="26" stroke-linecap="round" stroke-linejoin="round" stroke-miterlimit="10" x1="168.113" y1="13.982" x2="168.113" y2="66.649"/>
	
		<line fill="none" stroke="#FFFFFF" stroke-width="26" stroke-linecap="round" stroke-linejoin="round" stroke-miterlimit="10" x1="336.78" y1="146.149" x2="312.78" y2="146.149"/>
	
		<line fill="none" stroke="#FFFFFF" stroke-width="26" stroke-linecap="round" stroke-linejoin="round" stroke-miterlimit="10" x1="336.78" y1="104.149" x2="280.28" y2="104.149"/>
	
		<line fill="none" stroke="#FFFFFF" stroke-width="26" stroke-linecap="round" stroke-linejoin="round" stroke-miterlimit="10" x1="336.78" y1="62.649" x2="308.53" y2="62.649"/>
	
		<line fill="none" stroke="#FFFFFF" stroke-width="26" stroke-linecap="round" stroke-linejoin="round" stroke-miterlimit="10" x1="354.331" y1="34.149" x2="354.331" y2="13.982"/>
	
		<line fill="none" stroke="#FFFFFF" stroke-width="26" stroke-linecap="round" stroke-linejoin="round" stroke-miterlimit="10" x1="149.78" y1="160.649" x2="228.28" y2="160.649"/>
	
		<line fill="none" stroke="#FFFFFF" stroke-width="26" stroke-linecap="round" stroke-linejoin="round" stroke-miterlimit="10" x1="80.78" y1="195.649" x2="12.78" y2="153.649"/>
	
		<line fill="none" stroke="#FFFFFF" stroke-width="26" stroke-linecap="round" stroke-linejoin="round" stroke-miterlimit="10" x1="80.78" y1="198.149" x2="9.28" y2="326.149"/>
	
		<polyline fill="none" stroke="#FFFFFF" stroke-width="26" stroke-linecap="round" stroke-linejoin="round" stroke-miterlimit="10" points="
		66.28,232.258 111.78,258.316 73.78,332.649 	"/>
	
		<line fill="none" stroke="#FFFFFF" stroke-width="26" stroke-linecap="round" stroke-linejoin="round" stroke-miterlimit="10" x1="97.78" y1="291.649" x2="133.78" y2="313.149"/>
	
		<line fill="none" stroke="#FFFFFF" stroke-width="26" stroke-linecap="round" stroke-linejoin="round" stroke-miterlimit="10" x1="152.781" y1="783.606" x2="234.781" y2="676.938"/>
	
		<polyline fill="none" stroke="#FFFFFF" stroke-width="26" stroke-linecap="round" stroke-linejoin="round" stroke-miterlimit="10" points="
		256.113,777.272 210.113,880.606 6.113,880.606 	"/>
	
		<polyline fill="none" stroke="#FFFFFF" stroke-width="26" stroke-linecap="round" stroke-linejoin="round" stroke-miterlimit="10" points="
		210.781,919.272 210.781,883.272 210.781,921.272 12.781,921.272 	"/>
	
		<line fill="none" stroke="#FFFFFF" stroke-width="26" stroke-linecap="round" stroke-linejoin="round" stroke-miterlimit="10" x1="168.113" y1="978.272" x2="168.113" y2="925.606"/>
	
		<line fill="none" stroke="#FFFFFF" stroke-width="26" stroke-linecap="round" stroke-linejoin="round" stroke-miterlimit="10" x1="336.781" y1="846.106" x2="312.781" y2="846.106"/>
	
		<line fill="none" stroke="#FFFFFF" stroke-width="26" stroke-linecap="round" stroke-linejoin="round" stroke-miterlimit="10" x1="336.781" y1="888.106" x2="280.281" y2="888.106"/>
	
		<line fill="none" stroke="#FFFFFF" stroke-width="26" stroke-linecap="round" stroke-linejoin="round" stroke-miterlimit="10" x1="336.781" y1="929.606" x2="308.531" y2="929.606"/>
	
		<line fill="none" stroke="#FFFFFF" stroke-width="26" stroke-linecap="round" stroke-linejoin="round" stroke-miterlimit="10" x1="354.331" y1="958.106" x2="354.331" y2="978.272"/>
	
		<line fill="none" stroke="#FFFFFF" stroke-width="26" stroke-linecap="round" stroke-linejoin="round" stroke-miterlimit="10" x1="149.781" y1="831.606" x2="228.281" y2="831.606"/>
	
		<line fill="none" stroke="#FFFFFF" stroke-width="26" stroke-linecap="round" stroke-linejoin="round" stroke-miterlimit="10" x1="80.781" y1="796.606" x2="12.781" y2="838.606"/>
	
		<line fill="none" stroke="#FFFFFF" stroke-width="26" stroke-linecap="round" stroke-linejoin="round" stroke-miterlimit="10" x1="80.781" y1="794.106" x2="9.281" y2="666.106"/>
	
		<polyline fill="none" stroke="#FFFFFF" stroke-width="26" stroke-linecap="round" stroke-linejoin="round" stroke-miterlimit="10" points="
		66.281,759.997 111.781,733.938 73.781,659.606 	"/>
	
		<line fill="none" stroke="#FFFFFF" stroke-width="26" stroke-linecap="round" stroke-linejoin="round" stroke-miterlimit="10" x1="97.781" y1="700.606" x2="133.781" y2="679.106"/>
	
		<line fill="none" stroke="#FFFFFF" stroke-width="26" stroke-linecap="round" stroke-linejoin="round" stroke-miterlimit="10" x1="555.882" y1="783.606" x2="473.882" y2="676.938"/>
	
		<polyline fill="none" stroke="#FFFFFF" stroke-width="26" stroke-linecap="round" stroke-linejoin="round" stroke-miterlimit="10" points="
		452.55,777.272 498.55,880.606 702.55,880.606 	"/>
	
		<polyline fill="none" stroke="#FFFFFF" stroke-width="26" stroke-linecap="round" stroke-linejoin="round" stroke-miterlimit="10" points="
		497.882,919.272 497.882,883.272 497.882,921.272 695.882,921.272 	"/>
	
		<line fill="none" stroke="#FFFFFF" stroke-width="26" stroke-linecap="round" stroke-linejoin="round" stroke-miterlimit="10" x1="540.55" y1="978.272" x2="540.55" y2="925.606"/>
	
		<line fill="none" stroke="#FFFFFF" stroke-width="26" stroke-linecap="round" stroke-linejoin="round" stroke-miterlimit="10" x1="371.882" y1="846.106" x2="395.882" y2="846.106"/>
	
		<line fill="none" stroke="#FFFFFF" stroke-width="26" stroke-linecap="round" stroke-linejoin="round" stroke-miterlimit="10" x1="371.882" y1="888.106" x2="428.382" y2="888.106"/>
	
		<line fill="none" stroke="#FFFFFF" stroke-width="26" stroke-linecap="round" stroke-linejoin="round" stroke-miterlimit="10" x1="371.882" y1="929.606" x2="400.132" y2="929.606"/>
	
		<line fill="none" stroke="#FFFFFF" stroke-width="26" stroke-linecap="round" stroke-linejoin="round" stroke-miterlimit="10" x1="354.332" y1="958.106" x2="354.332" y2="978.272"/>
	
		<line fill="none" stroke="#FFFFFF" stroke-width="26" stroke-linecap="round" stroke-linejoin="round" stroke-miterlimit="10" x1="558.882" y1="831.606" x2="480.382" y2="831.606"/>
	
		<line fill="none" stroke="#FFFFFF" stroke-width="26" stroke-linecap="round" stroke-linejoin="round" stroke-miterlimit="10" x1="627.882" y1="796.606" x2="695.882" y2="838.606"/>
	
		<line fill="none" stroke="#FFFFFF" stroke-width="26" stroke-linecap="round" stroke-linejoin="round" stroke-miterlimit="10" x1="627.882" y1="794.106" x2="699.382" y2="666.106"/>
	
		<polyline fill="none" stroke="#FFFFFF" stroke-width="26" stroke-linecap="round" stroke-linejoin="round" stroke-miterlimit="10" points="
		642.382,759.997 596.882,733.938 634.882,659.606 	"/>
	
		<line fill="none" stroke="#FFFFFF" stroke-width="26" stroke-linecap="round" stroke-linejoin="round" stroke-miterlimit="10" x1="610.882" y1="700.606" x2="574.882" y2="679.106"/>
	
		<polyline fill="none" stroke="#FFFFFF" stroke-width="26" stroke-linecap="round" stroke-linejoin="round" stroke-miterlimit="10" points="
		354.332,496.145 520.882,496.145 623.882,496.121 	"/>
	<path fill="none" stroke="#FFFFFF" stroke-width="26" stroke-linecap="round" stroke-linejoin="round" stroke-miterlimit="10" d="
		M517.112,733.987c0,0-148.742,117.26-323.333,0"/>
	
		<polyline fill="none" stroke="#FFFFFF" stroke-width="26" stroke-linecap="round" stroke-linejoin="round" stroke-miterlimit="10" points="
		354.331,496.145 187.779,496.145 84.779,496.168 	"/>
</g>
<g id="Dots">
	<circle fill="#FFFFFF" cx="597.881" cy="439.649" r="13"/>
	<circle fill="#FFFFFF" cx="597.88" cy="552.5" r="13"/>
	<circle fill="#FFFFFF" cx="110.78" cy="439.673" r="13"/>
	<circle fill="#FFFFFF" cx="110.781" cy="552.523" r="13"/>
	<circle fill="#FFFFFF" cx="602.781" cy="159.523" r="13"/>
	<circle fill="#FFFFFF" cx="454.781" cy="55.523" r="13"/>
	<circle fill="#FFFFFF" cx="105.881" cy="159.523" r="13"/>
	<circle fill="#FFFFFF" cx="253.881" cy="55.523" r="13"/>
	<circle fill="#FFFFFF" cx="105.882" cy="832.731" r="13"/>
	<circle fill="#FFFFFF" cx="253.882" cy="936.731" r="13"/>
	<circle fill="#FFFFFF" cx="602.781" cy="832.731" r="13"/>
	<circle fill="#FFFFFF" cx="454.781" cy="936.731" r="13"/>
	<circle fill="#FFFFFF" cx="354.331" cy="496.062" r="224.092"/>
</g>
<g id="Layer_6">
	<rect x="758.882" y="113.649" fill="none" width="358" height="256"/>
	<text transform="matrix(1 0 0 1 758.8823 134.2388)"><tspan x="0" y="0" font-family="'MyriadPro-Regular'" font-size="29">to save just whats inside the </tspan><tspan x="0" y="34.8" font-family="'MyriadPro-Regular'" font-size="29">“artboad” use “save for web” </tspan><tspan x="0" y="69.6" font-family="'MyriadPro-Regular'" font-size="29">there may be a pixel of space </tspan><tspan x="0" y="104.4" font-family="'MyriadPro-Regular'" font-size="29">at the top for some unkown </tspan><tspan x="0" y="139.2" font-family="'MyriadPro-Regular'" font-size="29">reason</tspan></text>
</g>
</svg>
